<svg width="124" height="30" viewBox="0 0 124 30" fill="none" xmlns="http://www.w3.org/2000/svg">
<path d="M20.6829 4.10424L14.1446 14.8372L21.5968 25.8957H3.14542V4.10424H20.6829ZM26.3009 0.93811H0V29.0618H27.5338L24.2017 24.1193L17.8892 14.7498L23.3638 5.76051L26.3009 0.93811Z" fill="#FFC72C"/>
<path d="M48.7682 20.0529L50.3724 18.2219C50.5651 18.7115 50.9081 19.1264 51.3514 19.4062C51.8046 19.6982 52.3328 19.8501 52.8709 19.8432C53.4452 19.8751 54.0125 19.7043 54.4751 19.3603C54.6694 19.2042 54.8242 19.004 54.9268 18.7762C55.0294 18.5483 55.077 18.2992 55.0655 18.0493C55.0655 17.4039 54.4107 16.763 53.101 16.1264C52.6777 15.9232 52.3412 15.755 52.0959 15.626C50.9151 15.0055 50.0967 14.4002 49.6408 13.8103C49.1821 13.2042 48.9417 12.4591 48.9592 11.6973C48.9497 11.1644 49.0646 10.6368 49.2946 10.1567C49.5246 9.67664 49.8632 9.25759 50.2834 8.93325C51.1647 8.2049 52.3101 7.84073 53.7197 7.84073C54.4489 7.82328 55.1726 7.9727 55.8362 8.27773C56.4617 8.59288 57.0018 9.05629 57.4099 9.62809L55.7037 11.2734C55.5261 10.9049 55.2454 10.5966 54.8962 10.3863C54.5249 10.1816 54.106 10.0805 53.6828 10.0935C53.1846 10.0716 52.6945 10.2263 52.2978 10.5305C52.2774 10.5486 52.2585 10.5683 52.2414 10.5895C51.2703 11.733 51.8094 12.7432 53.8586 13.6202C54.1343 13.736 54.347 13.8387 54.4946 13.8977C55.6379 14.425 56.4852 15.0193 57.0366 15.6807C57.5744 16.3109 57.8674 17.1158 57.8615 17.9466C57.8615 19.2226 57.4273 20.2423 56.559 21.0056C55.6907 21.7689 54.533 22.1484 53.0858 22.144C52.1712 22.1684 51.263 21.9847 50.4288 21.6065C49.7235 21.2822 49.141 20.7373 48.7682 20.0529Z" fill="white"/>
<path d="M34.897 21.7791V8.18372H37.7841V14.3412L42.2863 8.18372H45.6206L40.7841 14.3783L47.5352 24.3334H44.062L37.7841 14.6667V21.7791H34.897Z" fill="white"/>
<path d="M72.3447 21.7791V8.18372H75.2318V13.6463H81.0929V8.18372H83.98V21.7791H81.0907V16.0979H75.2297V21.7791H72.3447Z" fill="white"/>
<path d="M99.6246 15.0099C99.6305 15.9561 99.4474 16.8939 99.0862 17.7674C98.7294 18.6285 98.2003 19.4065 97.532 20.053C96.8461 20.717 96.0409 21.2435 95.1593 21.6044C94.2924 21.9604 93.3648 22.143 92.4285 22.1419C91.6037 22.142 90.785 21.9993 90.0081 21.7202C89.2223 21.4409 88.4886 21.031 87.8374 20.5075C87.0093 19.8541 86.341 19.0185 85.8837 18.0646C85.4283 17.1105 85.1958 16.0641 85.2043 15.0055C85.1972 14.0609 85.3796 13.1245 85.7404 12.2524C86.0985 11.3909 86.629 10.6128 87.299 9.96683C87.9778 9.30379 88.7785 8.78052 89.6565 8.42638C90.5332 8.06388 91.472 7.87756 92.4198 7.87793C93.3621 7.87718 94.2953 8.06356 95.1658 8.42638C96.0421 8.7837 96.8424 9.3066 97.5233 9.96683C98.1928 10.6166 98.7233 11.3974 99.0819 12.2611C99.443 13.1318 99.6275 14.0664 99.6246 15.0099ZM92.4285 19.5504C92.998 19.5679 93.5644 19.4612 94.089 19.2375C94.6136 19.0139 95.0839 18.6786 95.4676 18.2547C96.2718 17.3717 96.701 16.2072 96.6637 15.0099C96.6955 13.8092 96.2619 12.6431 95.4546 11.7586C95.0752 11.3341 94.6091 10.9971 94.0883 10.7709C93.5675 10.5446 93.0043 10.4343 92.4372 10.4475C91.8668 10.4333 91.3 10.543 90.7756 10.7693C90.2511 10.9955 89.7813 11.333 89.3982 11.7586C88.5882 12.6432 88.1542 13.8118 88.189 15.0143C88.189 16.3253 88.5856 17.4106 89.3786 18.27C89.7671 18.6898 90.2401 19.0212 90.7661 19.242C91.2921 19.4628 91.8589 19.568 92.4285 19.5504Z" fill="white"/>
<path d="M115.274 15.0099C115.279 15.9563 115.095 16.894 114.733 17.7674C114.377 18.6289 113.848 19.407 113.179 20.053C112.494 20.7169 111.689 21.2435 110.808 21.6044C109.941 21.96 109.014 22.1425 108.077 22.1419C107.252 22.1422 106.432 21.9995 105.655 21.7202C104.869 21.4404 104.136 21.0305 103.484 20.5075C102.656 19.8541 101.988 19.0185 101.531 18.0646C101.077 17.11 100.845 16.0638 100.853 15.0055C100.846 14.0611 101.028 13.1249 101.387 12.2524C101.747 11.388 102.282 10.6083 102.957 9.96247C103.636 9.29982 104.437 8.77791 105.316 8.42638C106.193 8.06344 107.132 7.87711 108.08 7.87793C109.021 7.87747 109.954 8.06384 110.824 8.42638C111.7 8.7837 112.5 9.3066 113.181 9.96683C113.85 10.6166 114.381 11.3974 114.74 12.2611C115.099 13.1321 115.28 14.0669 115.274 15.0099ZM108.077 19.5504C108.647 19.5676 109.213 19.4608 109.738 19.2371C110.262 19.0135 110.733 18.6784 111.117 18.2547C111.92 17.3714 112.348 16.2069 112.31 15.0099C112.343 13.809 111.91 12.6425 111.101 11.7586C110.722 11.3342 110.257 10.9974 109.736 10.7711C109.216 10.5448 108.653 10.4345 108.086 10.4475C107.516 10.4336 106.949 10.5434 106.425 10.7697C105.9 10.9959 105.43 11.3332 105.047 11.7586C104.238 12.6437 103.804 13.8119 103.838 15.0143C103.838 16.3253 104.235 17.4106 105.028 18.27C105.416 18.6897 105.889 19.021 106.415 19.2418C106.941 19.4626 107.508 19.5678 108.077 19.5504Z" fill="white"/>
<path d="M116.5 21.7791V8.18372H119.387V19.31H124V21.7791H116.5Z" fill="white"/>
<path d="M70.5061 18.0952C69.9704 18.5934 69.3478 18.9875 68.6696 19.2576C67.977 19.5251 67.2407 19.6592 66.4989 19.6531C65.1284 19.6531 64.043 19.2336 63.2427 18.3945C62.4424 17.5555 62.0459 16.4207 62.0532 14.9902C62.0532 13.5335 62.4808 12.3682 63.3361 11.4942C64.1913 10.6201 65.3382 10.1868 66.7767 10.1941C67.4523 10.1894 68.1227 10.3139 68.7521 10.5611C69.3969 10.8296 69.9904 11.2089 70.5061 11.6821V8.73663C69.9058 8.45163 69.2771 8.23189 68.6305 8.08112C67.9342 7.92586 67.223 7.84819 66.5097 7.8495C64.3259 7.8495 62.5423 8.52104 61.1588 9.86412C59.7753 11.2072 59.0821 12.9159 59.0792 14.9902C59.0792 17.066 59.7695 18.7769 61.1501 20.1229C62.5307 21.4689 64.3006 22.1419 66.4598 22.1419C67.1775 22.1454 67.8926 22.055 68.5871 21.8731C69.2628 21.692 69.9107 21.4185 70.5126 21.0603L70.5061 18.0952Z" fill="white"/>
</svg>
