<svg width="24" height="25" viewBox="0 0 24 25" fill="none" xmlns="http://www.w3.org/2000/svg">
<path d="M21.6487 20.8352C20.2209 18.3668 18.0206 16.5968 15.4528 15.7577C16.7229 15.0016 17.7098 13.8494 18.2617 12.4781C18.8137 11.1069 18.9003 9.59232 18.5082 8.16709C18.116 6.74186 17.2669 5.48475 16.0912 4.58881C14.9155 3.69287 13.4782 3.20764 12 3.20764C10.5218 3.20764 9.08448 3.69287 7.90875 4.58881C6.73303 5.48475 5.88391 6.74186 5.4918 8.16709C5.09968 9.59232 5.18626 11.1069 5.73822 12.4781C6.29018 13.8494 7.27701 15.0016 8.54717 15.7577C5.97935 16.5958 3.77904 18.3658 2.35123 20.8352C2.29887 20.9206 2.26414 21.0156 2.24909 21.1146C2.23404 21.2136 2.23897 21.3146 2.2636 21.4117C2.28822 21.5088 2.33204 21.5999 2.39247 21.6798C2.4529 21.7597 2.52871 21.8266 2.61544 21.8767C2.70217 21.9268 2.79805 21.959 2.89742 21.9715C2.9968 21.9839 3.09767 21.9763 3.19406 21.9492C3.29046 21.922 3.38044 21.8758 3.45869 21.8133C3.53694 21.7508 3.60187 21.6732 3.64967 21.5852C5.41592 18.5327 8.53779 16.7102 12 16.7102C15.4622 16.7102 18.584 18.5327 20.3503 21.5852C20.3981 21.6732 20.463 21.7508 20.5413 21.8133C20.6195 21.8758 20.7095 21.922 20.8059 21.9492C20.9023 21.9763 21.0032 21.9839 21.1025 21.9715C21.2019 21.959 21.2978 21.9268 21.3845 21.8767C21.4712 21.8266 21.5471 21.7597 21.6075 21.6798C21.6679 21.5999 21.7117 21.5088 21.7364 21.4117C21.761 21.3146 21.7659 21.2136 21.7509 21.1146C21.7358 21.0156 21.7011 20.9206 21.6487 20.8352ZM6.74998 9.96019C6.74998 8.92184 7.05789 7.90681 7.63476 7.04345C8.21164 6.18009 9.03158 5.50718 9.99089 5.10982C10.9502 4.71246 12.0058 4.6085 13.0242 4.81107C14.0426 5.01364 14.9781 5.51366 15.7123 6.24788C16.4465 6.98211 16.9465 7.91757 17.1491 8.93597C17.3517 9.95437 17.2477 11.01 16.8503 11.9693C16.453 12.9286 15.7801 13.7485 14.9167 14.3254C14.0534 14.9023 13.0383 15.2102 12 15.2102C10.608 15.2087 9.27356 14.6551 8.28931 13.6709C7.30507 12.6866 6.75147 11.3521 6.74998 9.96019Z" fill="white"/>
</svg>
