<svg width="24" height="25" viewBox="0 0 24 25" fill="none" xmlns="http://www.w3.org/2000/svg">
<path d="M20.25 6.21021H16.5V5.46021C16.5 4.86347 16.2629 4.29117 15.841 3.86921C15.419 3.44726 14.8467 3.21021 14.25 3.21021H9.75C9.15326 3.21021 8.58097 3.44726 8.15901 3.86921C7.73705 4.29117 7.5 4.86347 7.5 5.46021V6.21021H3.75C3.35218 6.21021 2.97064 6.36824 2.68934 6.64954C2.40804 6.93085 2.25 7.31238 2.25 7.71021V19.7102C2.25 20.108 2.40804 20.4896 2.68934 20.7709C2.97064 21.0522 3.35218 21.2102 3.75 21.2102H20.25C20.6478 21.2102 21.0294 21.0522 21.3107 20.7709C21.592 20.4896 21.75 20.108 21.75 19.7102V7.71021C21.75 7.31238 21.592 6.93085 21.3107 6.64954C21.0294 6.36824 20.6478 6.21021 20.25 6.21021ZM9 5.46021C9 5.26129 9.07902 5.07053 9.21967 4.92988C9.36032 4.78922 9.55109 4.71021 9.75 4.71021H14.25C14.4489 4.71021 14.6397 4.78922 14.7803 4.92988C14.921 5.07053 15 5.26129 15 5.46021V6.21021H9V5.46021ZM20.25 7.71021V11.6111C17.7185 12.9891 14.8822 13.7107 12 13.7102C9.11794 13.7107 6.28165 12.9894 3.75 11.6121V7.71021H20.25ZM20.25 19.7102H3.75V13.3015C6.31868 14.5579 9.1405 15.2108 12 15.2102C14.8596 15.2103 17.6813 14.5571 20.25 13.3005V19.7102ZM9.75 11.4602C9.75 11.2613 9.82902 11.0705 9.96967 10.9299C10.1103 10.7892 10.3011 10.7102 10.5 10.7102H13.5C13.6989 10.7102 13.8897 10.7892 14.0303 10.9299C14.171 11.0705 14.25 11.2613 14.25 11.4602C14.25 11.6591 14.171 11.8499 14.0303 11.9905C13.8897 12.1312 13.6989 12.2102 13.5 12.2102H10.5C10.3011 12.2102 10.1103 12.1312 9.96967 11.9905C9.82902 11.8499 9.75 11.6591 9.75 11.4602Z" fill="white"/>
</svg>
