<svg width="181" height="34" viewBox="0 0 181 34" fill="none" xmlns="http://www.w3.org/2000/svg">
<path d="M6.57249 23.9779H1.684V11.3972H6.33885C8.69324 11.3972 10.2209 12.5654 10.2209 14.6323C10.2209 15.8005 9.41213 16.735 8.60337 17.0945C9.84347 17.5438 10.796 18.5682 10.796 20.2936C10.796 22.5761 9.17849 23.9779 6.57249 23.9779ZM3.53516 12.9608V16.4834H6.24899C7.65084 16.4834 8.40568 15.8903 8.40568 14.7221C8.40568 13.5719 7.65084 12.9608 6.23102 12.9608H3.53516ZM3.53516 18.1189V22.3244H6.32088C8.08217 22.3244 8.94485 21.5876 8.94485 20.2217C8.94485 18.8558 8.08217 18.1189 6.32088 18.1189H3.53516ZM19.0161 14.9198H20.8134L17.6323 23.6544L16.2664 27.6443H14.5949L15.817 24.0678L12.4562 14.9198H14.2534L16.6258 21.7134L19.0161 14.9198Z" fill="white"/>
<path fill-rule="evenodd" clip-rule="evenodd" d="M86.5935 9.64862C89.9632 9.65241 91.6717 9.71969 93.0939 10.2475C96.6797 11.5686 97.1837 14.2796 97.1837 16.1308C97.1837 18.4054 96.4051 20.8194 93.4727 21.7143L97.7824 29.5631H100.401V32.8155C99.3629 32.881 98.7068 32.9437 98.0161 32.9953C97.3267 33.0542 96.7749 33.0845 96.3622 33.0845C95.5148 33.0845 94.881 32.95 94.4621 32.6761C94.0372 32.4103 93.6594 31.9446 93.3305 31.2723L88.8042 22.5215H86.3481V27.669H81.6382V13.1794H79.6401V9.64843L86.5935 9.64862ZM43.7285 9.56731C44.7892 9.56731 45.5102 9.7819 45.8958 10.2085C46.2811 10.6386 46.4624 11.3423 46.4624 12.3216V24.0668H48.562V27.2606C48.562 27.2606 46.0144 27.6322 44.4982 27.6322C43.6822 27.6322 43.0753 27.5064 42.6672 27.2606C42.2619 27.0183 41.9901 26.6259 41.8534 26.0881C41.1077 26.6756 39.1965 28.0087 36.8613 28.0087C35.343 28.0087 33.6966 27.5484 32.4651 26.3081C31.9966 25.8319 31.2109 24.5129 31.2109 21.9335V13.1297H29.1104V9.89931C29.7669 9.79803 30.4883 9.72144 31.2824 9.65803C32.0672 9.5944 32.7015 9.56731 33.1772 9.56731C34.2388 9.56731 34.9615 9.7819 35.3484 10.2085C35.7303 10.6386 35.9221 11.3423 35.9221 12.3216V21.2359C35.9221 22.0443 36.0554 22.7026 36.4643 23.0333C37.4888 23.8684 39.6217 23.5563 40.1753 23.4926C40.7304 23.434 41.257 23.3439 41.7529 23.219V13.1297H39.6595V9.89931C40.3182 9.79803 41.0395 9.72144 41.8294 9.65803C42.6198 9.5944 43.2549 9.56731 43.7285 9.56731ZM74.0778 9.56731C75.1644 9.56731 75.8923 9.7819 76.2794 10.2085C76.6668 10.6386 76.8551 11.3432 76.8551 12.3216V27.6701H72.1451V13.1307H69.9094V9.9326C70.2437 9.88425 70.607 9.84335 70.9954 9.80381C70.9954 9.80381 73.097 9.56731 74.0778 9.56731ZM61.83 9.19904C65.6566 9.19904 66.9462 12.2591 66.9462 15.2622V24.0668H68.9997V27.2606C68.9997 27.2606 67.1867 27.4999 66.8285 27.54C66.4676 27.5733 66.1151 27.5989 65.78 27.6139C65.472 27.6224 65.2245 27.6267 65.0127 27.6322H64.9331C64.8853 27.6322 64.8428 27.6248 64.7948 27.6248C64.7089 27.6224 64.6251 27.6216 64.5411 27.6139C64.2173 27.597 63.9326 27.5539 63.687 27.4889C63.6642 27.4846 63.6495 27.4794 63.6301 27.4728C63.4307 27.4199 63.0464 27.2693 62.8103 27.0041C62.4222 26.5684 62.2381 25.8524 62.2381 24.8707V15.9594C62.2381 15.1288 62.055 14.5254 61.6917 14.1592C61.4665 13.9391 61.1724 13.7847 60.8138 13.7191C58.6905 13.325 56.8139 13.8549 56.3386 13.979V27.4805H51.6253V13.1297H49.2905V9.93191C49.9455 9.81077 52.1738 9.56731 53.526 9.56731C54.3623 9.56731 54.9901 9.6893 55.4103 9.93191C55.8259 10.1776 56.1134 10.5597 56.2696 11.0737C58.2475 9.32739 60.8368 9.19904 61.83 9.19904ZM88.948 13.0803H86.3481V19.1662H89.1328C91.562 19.1662 92.4823 17.4946 92.4823 16.0649C92.4823 14.7011 92.1097 13.0803 88.948 13.0803ZM73.7729 0.955811C74.5583 0.955811 75.1579 1.1422 75.5487 1.50634C75.9244 1.86645 76.1178 2.48494 76.1178 3.35126V3.84129C76.1178 4.70873 75.9293 5.31972 75.5487 5.66681C75.1579 6.01889 74.5611 6.19908 73.7729 6.19908H73.5252C72.7207 6.19908 72.1149 6.0226 71.7397 5.66916C71.3688 5.32313 71.1783 4.70761 71.1783 3.84129V3.35126C71.1783 2.48919 71.3688 1.86645 71.7397 1.50634C72.1226 1.14097 72.7236 0.955811 73.5252 0.955811H73.7729Z" fill="white"/>
<path d="M105.147 16.6336H109.357V15.7154H106.131V9.64697H105.147V16.6336ZM114.921 16.6336H115.943L113.342 9.64697H112.434L109.832 16.6336H110.845L111.478 14.857H114.288L114.921 16.6336ZM111.809 13.9487L112.888 10.9445L113.966 13.9487H111.809ZM121.842 16.7135C123.365 16.7135 124.387 15.7853 124.387 14.1883V9.64697H123.441V14.2182C123.441 15.2163 122.798 15.7853 121.842 15.7853C120.896 15.7853 120.253 15.2163 120.253 14.2182V9.64697H119.307V14.1883C119.307 15.7853 120.329 16.7135 121.842 16.7135ZM125.894 16.6336H126.878V11.2639L130.075 16.6336H131.163V9.64697H130.179V15.0267L126.991 9.64697H125.894V16.6336ZM132.792 16.6336H133.775V9.64697H132.792V16.6336ZM137.267 16.6336H138.241L140.71 9.64697H139.717L137.749 15.386L135.791 9.64697H134.798L137.267 16.6336ZM141.728 16.6336H146.08V15.7154H142.712V13.4896H145.351V12.5714H142.712V10.5652H145.976V9.64697H141.728V16.6336ZM151.181 13.32C151.768 13.0106 152.155 12.4916 152.155 11.743C152.155 10.4954 151.342 9.64697 150.008 9.64697H147.416V16.6336H148.4V13.8789H150.055C150.623 13.8789 151.011 14.318 151.058 14.9369L151.191 16.6336H152.146L152.013 14.847C151.976 14.1683 151.664 13.6194 151.181 13.32ZM148.4 10.5453H149.98C150.84 10.5453 151.171 11.1042 151.171 11.743C151.171 12.3718 150.84 12.9607 149.98 12.9607H148.4V10.5453ZM155.88 16.7135C157.298 16.7135 158.32 15.9649 158.32 14.6873C158.32 12.0224 154.546 13.1503 154.546 11.4535C154.546 10.8646 155.028 10.4854 155.823 10.4854C156.636 10.4854 157.166 10.9545 157.232 11.6731H158.188C158.103 10.3956 157.176 9.56714 155.823 9.56714C154.489 9.56714 153.562 10.3357 153.562 11.4535C153.562 14.0286 157.318 13.0205 157.318 14.6973C157.318 15.4559 156.712 15.7952 155.88 15.7952C154.943 15.7952 154.385 15.2163 154.309 14.318H153.354C153.43 15.7653 154.385 16.7135 155.88 16.7135ZM159.596 16.6336H160.579V9.64697H159.596V16.6336ZM162.207 16.6336H164.241C166.086 16.6336 167.58 15.416 167.58 13.1403C167.58 10.8646 166.086 9.64697 164.241 9.64697H162.207V16.6336ZM163.191 15.7154V10.5652H164.184C165.414 10.5652 166.568 11.2938 166.568 13.1403C166.568 14.9868 165.414 15.7154 164.184 15.7154H163.191ZM173.145 16.6336H174.167L171.566 9.64697H170.658L168.056 16.6336H169.068L169.702 14.857H172.512L173.145 16.6336ZM170.033 13.9487L171.112 10.9445L172.19 13.9487H170.033ZM175.153 16.6336H177.187C179.031 16.6336 180.526 15.416 180.526 13.1403C180.526 10.8646 179.031 9.64697 177.187 9.64697H175.153V16.6336ZM176.137 15.7154V10.5652H177.13C178.36 10.5652 179.514 11.2938 179.514 13.1403C179.514 14.9868 178.36 15.7154 177.13 15.7154H176.137ZM105.147 27.5477H109.498V26.6293H106.131V24.4035H108.77V23.4853H106.131V21.4791H109.394V20.5609H105.147V27.5477ZM110.835 27.5477H111.819V22.1778L115.016 27.5477H116.104V20.5609H115.12V25.9406L111.932 20.5609H110.835V27.5477ZM120.197 27.5477H121.18V20.5609H120.197V27.5477ZM122.808 27.5477H123.792V22.1778L126.989 27.5477H128.077V20.5609H127.094V25.9406L123.906 20.5609H122.808V27.5477ZM131.21 27.5477H132.194V21.4791H134.266V20.5609H129.139V21.4791H131.21V27.5477ZM135.256 27.5477H139.607V26.6293H136.239V24.4035H138.878V23.4853H136.239V21.4791H139.503V20.5609H135.256V27.5477ZM144.708 24.2339C145.295 23.9245 145.682 23.4055 145.682 22.6569C145.682 21.4093 144.869 20.5609 143.535 20.5609H140.943V27.5477H141.927V24.7928H143.582C144.15 24.7928 144.538 25.232 144.585 25.8508L144.718 27.5477H145.673L145.54 25.761C145.503 25.0823 145.191 24.5333 144.708 24.2339ZM141.927 21.4592H143.507C144.367 21.4592 144.698 22.0181 144.698 22.6569C144.698 23.2857 144.367 23.8746 143.507 23.8746H141.927V21.4592ZM147.407 27.5477H148.391V22.1778L151.588 27.5477H152.676V20.5609H151.692V25.9406L148.504 20.5609H147.407V27.5477ZM154.305 27.5477H158.656V26.6293H155.289V24.4035H157.928V23.4853H155.289V21.4791H158.552V20.5609H154.305V27.5477ZM161.497 27.5477H162.481V21.4791H164.552V20.5609H159.425V21.4791H161.497V27.5477Z" fill="white"/>
</svg>
